<?xml version="1.0" encoding="utf-8"?>
<!-- Generator: Adobe Illustrator 24.0.1, SVG Export Plug-In . SVG Version: 6.00 Build 0)  -->
<svg version="1.1" id="图层_1" xmlns="http://www.w3.org/2000/svg" xmlns:xlink="http://www.w3.org/1999/xlink" x="0px" y="0px"
	 viewBox="0 0 382.68 113.39" style="enable-background:new 0 0 382.68 113.39;" xml:space="preserve">
<style type="text/css">
	.st0{fill-rule:evenodd;clip-rule:evenodd;fill:#F18A42;}
	.st1{fill-rule:evenodd;clip-rule:evenodd;fill:#2855A5;}
	.st2{fill-rule:evenodd;clip-rule:evenodd;fill:#9FA0A0;}
	.st3{fill-rule:evenodd;clip-rule:evenodd;fill:#727171;}
	.st4{fill-rule:evenodd;clip-rule:evenodd;fill:#1B7FBE;}
	.st5{fill-rule:evenodd;clip-rule:evenodd;fill:#F5A200;}
	.st6{fill-rule:evenodd;clip-rule:evenodd;fill:#26A854;}
	.st7{fill-rule:evenodd;clip-rule:evenodd;fill:#E94738;}
</style>
<path class="st0" d="M62.22,34.39l7.39-7.98l7.39,7.98l-7.39,7.98L62.22,34.39z"/>
<path class="st1" d="M52.67,33.07c-3.51-2.22-7.6-3.5-11.96-3.5c-13.12,0-23.75,11.49-23.75,25.66c0,9.47,1.46,9.54,1.46,15.05
	c0,4.33-2.54,9.81-1.69,10.86c0.75,0.93,4.61-1.82,9.82-1.82c4.99,0,4.94,1.57,14.16,1.57c10.7,0,19.75-7.65,22.72-18.16H37.1V46.76
	h26.03c0,0,0,0,0,0h15.56c0.52,2.72,0.8,5.54,0.8,8.43c0,22.92-17.47,41.45-38.69,41.45c-14.9,0-14.82-2.39-22.9-2.39
	c-8.42,0-14.59,3.71-15.51,2.39c-0.98-1.41,2.22-10.15,2.22-17.16c0-8.92-2.22-9.03-2.22-24.34c0-22.92,17.35-41.58,38.56-41.58
	c7.01,0,13.59,2.06,19.27,5.62L52.67,33.07z"/>
<path class="st2" d="M177.18,30.41c-6.78,0-18.35,5.93-18.35,19.82c0,13.9,11.22,19.82,18.35,19.82s14.48-6.31,16.97-10.9
	c-1.88-2.38-6.88-8.42-6.88-8.42s-5.36,7.43-10.09,7.43c-4.73,0-6.88-4.39-6.88-7.93c0-3.54,2.74-7.93,6.88-7.93
	c9.49,0,18.91,27.75,35.78,27.75c13.31,0,17.89-13.54,17.89-19.82c0-8.71-6.69-19.82-17.89-19.82c-10.34,0-17.89,9.91-17.89,9.91
	l7.34,9.42c0,0,5.08-7.43,10.55-7.43c3.42,0,6.42,4.31,6.42,7.93c0,1.08-0.77,7.93-6.42,7.93
	C202.27,58.16,194.61,30.41,177.18,30.41z"/>
<path class="st3" d="M284.96,89.97c-7.65,0-13.76-6.7-13.76-14.96h9.2c0,2.72,2.04,4.93,4.56,4.93s4.56-2.21,4.56-4.93h0.03v-0.5
	V61.63V60.9v-4.72V30.41h9.17v44.6C298.72,83.27,292.61,89.97,284.96,89.97z M293.68,24.96c-2.53,0-4.59-2.22-4.59-4.96
	c0-2.74,2.05-4.96,4.59-4.96c2.53,0,4.59,2.22,4.59,4.96C298.26,22.74,296.21,24.96,293.68,24.96z"/>
<path class="st3" d="M320.28,30.9c-10.13,0-18.35,8.87-18.35,19.82c0,10.95,8.21,19.82,18.35,19.82c10.13,0,18.35-8.87,18.35-19.82
	C338.62,39.78,330.41,30.9,320.28,30.9z M320.28,60.64c-5.06,0-9.17-4.44-9.17-9.91c0-5.47,4.11-9.91,9.17-9.91s9.17,4.44,9.17,9.91
	C329.45,56.2,325.34,60.64,320.28,60.64z"/>
<path class="st3" d="M360.18,70.55c-3.34,0-6.47-0.97-9.17-2.66v2.66h-9.17V13.56h9.17v20c2.7-1.69,5.83-2.66,9.17-2.66
	c10.13,0,18.35,8.87,18.35,19.82S370.31,70.55,360.18,70.55z M360.18,40.82c-5.05,0-9.16,4.43-9.17,9.88v0.06
	c0.02,5.45,4.12,9.88,9.17,9.88c5.06,0,9.17-4.44,9.17-9.91C369.35,45.26,365.24,40.82,360.18,40.82z"/>
<path class="st3" d="M261.57,70.55v-2.66c-2.7,1.69-5.83,2.66-9.17,2.66c-10.13,0-18.35-8.87-18.35-19.82s8.21-19.82,18.35-19.82
	c3.34,0,6.47,0.97,9.17,2.66v-20h9.17v56.99H261.57z M252.4,40.82c-5.06,0-9.17,4.44-9.17,9.91c0,5.47,4.11,9.91,9.17,9.91
	c5.06,0,9.17-4.44,9.17-9.91C261.57,45.26,257.46,40.82,252.4,40.82z"/>
<path class="st3" d="M139.57,26.94c-2.49-1.47-5.19-2.48-8.26-2.48c-9.46,0-16.97,8.43-16.97,18.34c0,15.77,12.58,17.34,16.97,17.34
	c8.02,0,13.18-4.65,15.07-12.39h-15.07v-9.91h5.5h3.67h5.59h9.55c0,1.77,0,3.58,0,5.45c0,15.57-9.9,27.23-24.31,27.26
	c-15.48,0.03-26.09-10.5-26.14-27.75c-0.05-15.57,11.73-28.74,26.14-28.74c4.8,0,9.44,1.52,13.3,3.96L139.57,26.94z"/>
<path class="st4" d="M246.43,98.3l-9.17-9.91h33.9c3.39,4.1,8.31,6.69,13.8,6.69c5.49,0,10.42-2.59,13.8-6.69h6.84l9.17,9.91H246.43
	z"/>
<path class="st5" d="M168.92,88.39h68.34l9.17,9.91h-68.34L168.92,88.39z"/>
<path class="st6" d="M373.47,88.39H305.6l9.17,9.91h58.72c2.53,0,4.58-2.21,4.58-4.94C378.07,90.61,376.01,88.39,373.47,88.39z"/>
<path class="st7" d="M109.77,88.39h59.16l9.17,9.91h-68.35c-2.53,0-4.58-2.21-4.58-4.94C105.17,90.61,107.23,88.39,109.77,88.39z"/>
</svg>
