<?xml version="1.0" encoding="utf-8"?>
<!-- Generator: Adobe Illustrator 24.3.0, SVG Export Plug-In . SVG Version: 6.00 Build 0)  -->
<svg version="1.1" id="图层_1" xmlns="http://www.w3.org/2000/svg" xmlns:xlink="http://www.w3.org/1999/xlink" x="0px" y="0px"
	 viewBox="0 0 100 100" style="enable-background:new 0 0 100 100;" xml:space="preserve">
<style type="text/css">
	.st0{fill:#24B33C;}
	.st1{fill:#FFFFFF;}
</style>
<g>
	<circle class="st0" cx="52.62" cy="48.3" r="43.5"/>
</g>
<g>
	<g>
		<path class="st1" d="M48.59,67.64l23.77-28.19c1.53-1.81,1.29-4.54-0.52-6.05L63.09,26c-1.81-1.53-4.54-1.29-6.05,0.52
			L33.26,54.71l-1.38,15.03c-0.05,0.55,0.17,1.1,0.59,1.45c0.42,0.36,1,0.49,1.53,0.34L48.59,67.64z M55.32,33.88l10.08,8.5
			L48.18,62.8L38.1,54.3L55.32,33.88z M60.87,28.63l8.76,7.39c0.36,0.3,0.4,0.85,0.1,1.21l-2.14,2.54l-10.07-8.5l2.14-2.54
			C59.96,28.37,60.52,28.33,60.87,28.63L60.87,28.63z M35.49,67.62l0.94-10.22l8.98,7.57L35.49,67.62z M35.49,67.62"/>
	</g>
</g>
</svg>
